<svg xmlns="http://www.w3.org/2000/svg" viewBox="0 0 252.6 125.59"><path d="M103.24 67.35H86.29q-2.37 0-4.2-.75c-2.47-1.02-3.93-2.7-4.38-5.03-.2-1.13-.07-2.35.37-3.64l3.44-10c.44-1.28 1.15-2.5 2.13-3.64 2.06-2.33 4.68-4.01 7.84-5.03q2.34-.75 4.71-.75h16.95q2.34 0 4.17.75c2.47 1.02 3.93 2.7 4.38 5.03.21 1.15.09 2.36-.35 3.64l-3.44 10c-.45 1.3-1.17 2.51-2.16 3.64-2.06 2.33-4.68 4.01-7.84 5.03q-2.34.75-4.68.75zm2.23-6.48c.99 0 1.93-.29 2.81-.86s1.47-1.27 1.75-2.08l3.44-10c.28-.81.17-1.51-.32-2.08s-1.23-.86-2.22-.86H93.98c-.99 0-1.93.29-2.82.86s-1.48 1.27-1.76 2.08l-3.44 10c-.28.81-.17 1.51.33 2.08s1.24.86 2.23.86zM137.12 67.35h-7.87l3.86-11.22-9.9-17.72h9.78l6.27 11.24 14.01-11.24h9.78l-22.07 17.72zM187.52 67.35h-9.01l-6.97-20.74-21.28 20.74h-9l29.66-28.93h6.87zM229.27 67.35h-7.87l3.86-11.22h-24.1l-3.86 11.22h-7.9l9.96-28.93h7.9l-3.87 11.24h24.1l3.87-11.24h7.87zM94.88 108.91H77.93c-1.58 0-2.97-.24-4.18-.72-2.48-1.04-3.94-2.71-4.38-5.03q-.315-1.725.36-3.66l3.44-10c.44-1.28 1.16-2.5 2.16-3.64 2.04-2.32 4.65-3.99 7.84-5.03q2.325-.75 4.68-.75h16.95q2.37 0 4.2.75c2.46 1.03 3.92 2.71 4.38 5.03.19 1.15.07 2.36-.37 3.64h-7.87q.42-1.215-.33-2.07c-.75-.855-1.25-.85-2.24-.85H85.62c-.99 0-1.93.28-2.82.85s-1.48 1.26-1.76 2.07l-3.44 10c-.28.81-.17 1.51.33 2.08s1.24.86 2.23.86h16.95c.99 0 1.93-.29 2.82-.86s1.48-1.27 1.76-2.08h7.87c-.45 1.3-1.16 2.52-2.14 3.66-2.05 2.32-4.67 3.99-7.84 5.03-1.56.48-3.12.72-4.7.72M149.68 108.91h-7.87l3.86-11.22h-24.1l-3.86 11.22h-7.9l9.96-28.93h7.9l-3.87 11.24h24.1l3.87-11.24h7.87zM197.83 108.91h-9.01l-6.97-20.74-21.28 20.74h-9l29.66-28.93h6.87zM209.02 108.91h-7.87l7.73-22.46h-12.8l2.23-6.48h33.45l-2.23 6.48h-12.78zM30.08 31.98 0 0v17.5c0 4.75 1.78 9.33 4.98 12.84L19.1 45.81c2.87 3.14 4.75 7.06 5.4 11.27l6.38 41.31c.14.91.44 1.78.88 2.59l3.22 5.9c.23.42.88.25.87-.23L34.24 42.1c-.09-3.77-1.57-7.37-4.16-10.11zM45.07 33.97c-.74-.64-1.84-.64-2.59 0l-3.21 2.76c-.54.46-.83 1.14-.81 1.84l2.56 82.01c.01.43.12.85.33 1.23l1.91 3.61c.13.25.48.25.61 0l1.93-3.61c.2-.38.32-.8.33-1.23l2.93-82c.03-.71-.27-1.38-.8-1.85z"/><path d="M252.6 0H92.63c-3.25 0-6.37 1.34-8.6 3.72L57.44 31.98a15.38 15.38 0 0 0-4.16 10.11l-1.61 64.55c-.01.48.63.66.87.23l3.22-5.9c.44-.81.74-1.68.88-2.59l6.38-41.31c.65-4.21 2.53-8.13 5.4-11.27l20.53-22.49c2.24-2.45 5.4-3.85 8.72-3.85h127.94c12.25 0 23.12-7.85 26.98-19.47z"/></svg>