<svg xmlns="http://www.w3.org/2000/svg" viewBox="0 0 1159.39 1663.98" fill="#000"><path d="M1159.39 219.34V3.62c0-.73-.22-1.45-.64-2.05-.41-.6-1-1.07-1.68-1.33-.69-.26-1.44-.31-2.15-.14-.71.17-1.36.56-1.85 1.1L752.92 446.75a181.108 181.108 0 00-46.3 115.87l-24.59 858.82c-.02.81.22 1.6.7 2.25s1.16 1.12 1.93 1.34c.78.22 1.6.18 2.35-.13.75-.3 1.37-.84 1.77-1.54l49.93-86.55a90.548 90.548 0 0011.29-33.02l71.35-523.15a362.348 362.348 0 0197.92-202.26l164.17-170.62a271.735 271.735 0 0075.93-188.42zM0 219.34V3.62c0-.73.22-1.45.64-2.05.41-.6 1-1.07 1.69-1.33.68-.26 1.43-.31 2.14-.14.71.17 1.36.56 1.85 1.1l400.15 445.55a181.108 181.108 0 0146.3 115.87l24.59 858.82c.02.81-.22 1.6-.7 2.25-.48.65-1.16 1.12-1.93 1.34-.78.22-1.6.18-2.35-.13-.75-.3-1.37-.84-1.77-1.54l-49.93-86.55a90.548 90.548 0 01-11.29-33.02l-71.36-523.15a362.348 362.348 0 00-97.92-202.26L75.94 407.76A271.664 271.664 0 010 219.34zM631.12 484.95l-46.68-40.43a7.232 7.232 0 00-9.48 0l-46.67 40.43a36.406 36.406 0 00-9.45 12.8 36.316 36.316 0 00-3.05 15.62l31.29 1093.38c.09 3 .92 5.94 2.42 8.54l27.06 46.87c.32.56.78 1.01 1.33 1.33.55.32 1.18.49 1.81.49s1.26-.17 1.81-.49a3.61 3.61 0 001.33-1.33l27.08-46.89c1.5-2.6 2.33-5.54 2.42-8.54l31.29-1093.36c.15-5.37-.89-10.7-3.05-15.62a36.232 36.232 0 00-9.45-12.81z"/></svg>